<svg xmlns="http://www.w3.org/2000/svg" width="320" height="168" viewBox="0 0 320 168">
  <g fill="#f6e000" fill-opacity="0.4">
    <circle cx="320.00" cy="14.00" r="5.00" />
    <circle cx="296.00" cy="14.00" r="4.59" />
    <circle cx="272.00" cy="14.00" r="4.18" />
    <circle cx="248.00" cy="14.00" r="3.77" />
    <circle cx="224.00" cy="14.00" r="3.36" />
    <circle cx="200.00" cy="14.00" r="2.95" />
    <circle cx="176.00" cy="14.00" r="2.54" />
    <circle cx="152.00" cy="14.00" r="2.13" />
    <circle cx="128.00" cy="14.00" r="1.72" />
    <circle cx="104.00" cy="14.00" r="1.31" />
    <circle cx="80.00" cy="14.00" r="0.90" />
    <circle cx="56.00" cy="14.00" r="0.48" />
    <circle cx="308.00" cy="42.00" r="4.77" />
    <circle cx="284.00" cy="42.00" r="4.32" />
    <circle cx="260.00" cy="42.00" r="3.87" />
    <circle cx="236.00" cy="42.00" r="3.42" />
    <circle cx="212.00" cy="42.00" r="2.97" />
    <circle cx="188.00" cy="42.00" r="2.52" />
    <circle cx="164.00" cy="42.00" r="2.07" />
    <circle cx="140.00" cy="42.00" r="1.62" />
    <circle cx="116.00" cy="42.00" r="1.17" />
    <circle cx="92.00" cy="42.00" r="0.72" />
    <circle cx="320.00" cy="70.00" r="5.00" />
    <circle cx="296.00" cy="70.00" r="4.46" />
    <circle cx="272.00" cy="70.00" r="3.93" />
    <circle cx="248.00" cy="70.00" r="3.39" />
    <circle cx="224.00" cy="70.00" r="2.86" />
    <circle cx="200.00" cy="70.00" r="2.32" />
    <circle cx="176.00" cy="70.00" r="1.78" />
    <circle cx="152.00" cy="70.00" r="1.25" />
    <circle cx="128.00" cy="70.00" r="0.71" />
    <circle cx="308.00" cy="98.00" r="4.61" />
    <circle cx="284.00" cy="98.00" r="3.82" />
    <circle cx="260.00" cy="98.00" r="3.04" />
    <circle cx="236.00" cy="98.00" r="2.26" />
    <circle cx="212.00" cy="98.00" r="1.47" />
    <circle cx="188.00" cy="98.00" r="0.69" />
    <circle cx="320.00" cy="126.00" r="5.00" />
    <circle cx="296.00" cy="126.00" r="4.58" />
    <circle cx="272.00" cy="126.00" r="4.16" />
    <circle cx="248.00" cy="126.00" r="3.74" />
    <circle cx="224.00" cy="126.00" r="3.31" />
    <circle cx="200.00" cy="126.00" r="2.89" />
    <circle cx="176.00" cy="126.00" r="2.47" />
    <circle cx="152.00" cy="126.00" r="2.05" />
    <circle cx="128.00" cy="126.00" r="1.63" />
    <circle cx="104.00" cy="126.00" r="1.21" />
    <circle cx="80.00" cy="126.00" r="0.78" />
    <circle cx="56.00" cy="126.00" r="0.36" />
    <circle cx="308.00" cy="154.00" r="4.81" />
    <circle cx="284.00" cy="154.00" r="4.42" />
    <circle cx="260.00" cy="154.00" r="4.03" />
    <circle cx="236.00" cy="154.00" r="3.64" />
    <circle cx="212.00" cy="154.00" r="3.25" />
    <circle cx="188.00" cy="154.00" r="2.86" />
    <circle cx="164.00" cy="154.00" r="2.47" />
    <circle cx="140.00" cy="154.00" r="2.08" />
    <circle cx="116.00" cy="154.00" r="1.69" />
    <circle cx="92.00" cy="154.00" r="1.30" />
    <circle cx="68.00" cy="154.00" r="0.91" />
    <circle cx="44.00" cy="154.00" r="0.52" />
  </g>
</svg>
